<?xml version="1.0" encoding="utf-8"?>
<!-- Generator: Adobe Illustrator 25.1.0, SVG Export Plug-In . SVG Version: 6.00 Build 0)  -->
<svg version="1.1" xmlns="http://www.w3.org/2000/svg" xmlns:xlink="http://www.w3.org/1999/xlink" x="0px" y="0px"
	 viewBox="0 0 565.8 136.5" style="enable-background:new 0 0 565.8 136.5;" xml:space="preserve">
<style type="text/css">
	.st0{fill:#1D2054;}
	.st1{fill:#25A7DF;}
	.st2{fill:#E82629;}
	.st3{fill:#FFFFFF;}
</style>
<g id="Layer_1">
	<g>
		<path class="st0" d="M6.8,100.6H0V36.4h18.4c9.6,0,21.3,5,21.3,18.1c0,9.4-6,16.2-16.7,18c7,9.5,17.3,23.5,20.8,28.1h-8.4
			l-20.2-28H6.8V100.6z M6.8,66.4h9.3c10,0,16.3-3.4,16.3-11.7c0-7.2-5.9-12-14.5-12H6.8V66.4z"/>
		<path class="st0" d="M78,95.3c-4.3,4.7-9.5,6.3-14.7,6.3c-8.2,0-15.5-4.9-15.5-13.3c0-11,10.3-15.3,19.8-15.3
			c3,0,6.1,0.4,10.2,1.4V72c0-7.4-3.7-11.5-11.5-11.5c-5.2,0-11.1,1.9-14.6,3.8l-2.1-5.6c4.1-1.9,11.1-3.9,17-3.9
			c13.3,0,17.4,7,17.4,18.5v27.3h-5.6L78,95.3z M67.4,78.2c-6.1,0-13.3,2.5-13.3,9.4c0,5.4,4.2,8.9,9.4,8.9c5.1,0,10.1-2.7,14.3-6.7
			V79.5C74,78.6,70.6,78.2,67.4,78.2z"/>
		<path class="st0" d="M100.6,55.8v5.8c3.4-4.5,8.9-6.9,14.4-6.9c13.1,0,22.9,10.5,22.9,23.3c0,12.7-9.9,23.6-23,23.6
			c-5,0-10.4-1.9-14.3-5.5v24.1h-6.2V55.8H100.6z M100.6,88.9c3.3,4.3,9.1,7.1,14.2,7.1c9.7,0,16.7-8.1,16.7-17.6
			c0-9.6-6.9-18-16.7-18c-5.5,0-11.6,3.2-14.2,8.4V88.9z"/>
		<path class="st0" d="M147.8,46.3v-8.6h6.2v8.6H147.8z M147.8,100.6V55.8h6.2v44.7H147.8z"/>
		<path class="st0" d="M201.3,94.8c-3.4,4.5-8.9,6.9-14.4,6.9c-13.1,0-22.9-10.5-22.9-23.3c0-12.7,9.9-23.6,23-23.6
			c5,0,10.4,1.9,14.3,5.5V35.6h6.2v65h-6.2V94.8z M201.3,67.5c-3.3-4.3-9.1-7.1-14.2-7.1c-9.7,0-16.7,8.1-16.7,17.6
			c0,9.6,6.9,18,16.7,18c5.5,0,11.6-3.2,14.2-8.4V67.5z"/>
		<path class="st0" d="M244.1,41.5c-7.9,0-12.9,3.8-12.9,10c0,7.1,8.5,9.3,17,12.5c8.3,3.1,16.7,7.2,16.7,17.9
			c0,14.4-12.6,19.8-21.7,19.8c-9.1,0-15.9-2.6-22.5-9.1l5.1-4.6c6.3,6.4,11.2,7.4,17.5,7.4c7.3,0,14.4-3.9,14.4-12.5
			c0-7.7-7.3-10.5-15.1-13.5c-8.8-3.3-18.2-6.6-18.2-17c0-11.7,8.7-17.1,18.8-17.1c7.3,0,13.7,2,19.1,6.1l-4.5,4.9
			C254.9,43.6,249.2,41.5,244.1,41.5z"/>
		<path class="st0" d="M307.1,101.7c-18.5,0-32.7-14.8-32.7-33.2c0-18.3,14.2-33.2,32.7-33.2c18.5,0,32.7,14.9,32.7,33.2
			C339.8,86.8,325.6,101.7,307.1,101.7z M307.1,41.5c-14.7,0-25.5,11.8-25.5,26.9c0,15.1,10.8,26.9,25.5,26.9
			c14.7,0,25.5-11.8,25.5-26.9C332.6,53.4,321.8,41.5,307.1,41.5z"/>
		<path class="st0" d="M369.1,41.5c-7.9,0-12.9,3.8-12.9,10c0,7.1,8.5,9.3,17,12.5c8.3,3.1,16.7,7.2,16.7,17.9
			c0,14.4-12.6,19.8-21.7,19.8c-9.1,0-16-2.6-22.6-9.1l5.1-4.6c6.3,6.4,11.2,7.4,17.5,7.4c7.3,0,14.4-3.9,14.4-12.5
			c0-7.7-7.3-10.5-15.1-13.5c-8.8-3.3-18.2-6.6-18.2-17c0-11.7,8.7-17.1,18.8-17.1c7.3,0,13.7,2,19.1,6.1l-4.5,4.9
			C379.8,43.6,374.1,41.5,369.1,41.5z"/>
		<path class="st1" d="M552.7,45.5h-30.7c-1,0-1.8-0.8-1.8-1.8l0-30.7c0-7.2-5.8-13-13-13h-19.4c-7.2,0-13,5.8-13,13v18.2
			c0,1,0.8,1.8,1.8,1.8h2.6c1,0,1.8-0.8,1.8-1.8V13c0-3.8,3.1-6.9,6.9-6.9h19.4c3.8,0,6.9,3.1,7,8.2l0,64.9l0-1.3
			c0,7.1,5.8,13,12.9,13l0,0h25.7c7.1,0,12.9-5.9,12.9-13V58.5C565.8,51.3,559.9,45.5,552.7,45.5z M559.7,78c0,3.8-3.1,6.9-6.9,6.9
			h-25.6c-3.8,0-6.9-3.1-6.9-6.9v0l0-26.4h32.5c3.8,0,6.9,3.1,6.9,6.9V78z"/>
		<path class="st2" d="M442.3,91H473c1,0,1.8,0.8,1.8,1.8l0,30.7c0,7.2,5.8,13,13,13h19.4c7.2,0,13-5.8,13-13v-18.2
			c0-1-0.8-1.8-1.8-1.8h-2.6c-1,0-1.8,0.8-1.8,1.8v18.2c0,3.8-3.1,6.9-6.9,6.9h-19.4c-3.8,0-6.9-3.1-7-8.2l0-64.9l0,1.3
			c0-7.1-5.8-13-12.9-13l0,0h-25.7c-7.1,0-12.9,5.9-12.9,13V78C429.3,85.2,435.1,91,442.3,91z M435.4,58.5c0-3.8,3.1-6.9,6.9-6.9
			h25.6c3.8,0,6.9,3.1,6.9,6.9v0l0,26.4h-32.5c-3.8,0-6.9-3.1-6.9-6.9V58.5z"/>
	</g>
</g>
<g id="Layer_2">
</g>
<g id="Layer_3">
</g>
<g id="Layer_4">
</g>
</svg>
